<svg width="29" height="29" viewBox="0 0 29 29" fill="none" xmlns="http://www.w3.org/2000/svg">
<g clip-path="url(#clip0_235_349)">
<path d="M15.2958 22.0005L28.6721 8.58717C29.1101 8.1477 29.1093 7.43618 28.6698 6.99745C28.2303 6.55905 27.5184 6.56018 27.0801 6.99971L14.5 19.6147L1.9199 6.99926C1.4815 6.55979 0.770041 6.55865 0.330511 6.99699C0.11018 7.21693 1.33149e-05 7.50506 1.33023e-05 7.79319C1.32897e-05 8.08058 0.109444 8.36758 0.328245 8.58712L13.7042 22.0005C13.9147 22.2122 14.2013 22.331 14.5 22.331C14.7986 22.331 15.0848 22.2119 15.2958 22.0005Z" fill="white"/>
</g>
<defs>
<clipPath id="clip0_235_349">
<rect width="29" height="29" fill="white" transform="translate(29) rotate(90)"/>
</clipPath>
</defs>
</svg>
