<svg width="40" height="40" viewBox="0 0 40 40" fill="none" xmlns="http://www.w3.org/2000/svg">
<g clip-path="url(#clip0_49_30)" filter="url(#filter0_bii_49_30)">
<path d="M20 0C8.97156 0 0 8.97156 0 20C0 31.0284 8.97156 40 20 40C31.0284 40 40 31.0284 40 20C40 8.97156 31.0284 0 20 0ZM29.5117 30.3448C29.1867 30.6699 28.7601 30.8334 28.3334 30.8334C27.9068 30.8334 27.4799 30.6699 27.1552 30.3448L18.8217 22.0117C18.5083 21.7001 18.3334 21.2766 18.3334 20.8334V10C18.3334 9.07837 19.0799 8.33344 20 8.33344C20.9201 8.33344 21.6666 9.07837 21.6666 10V20.1434L29.5117 27.9883C30.1633 28.6401 30.1633 29.6933 29.5117 30.3448Z" fill="white" fill-opacity="0.01"/>
</g>
<defs>
<filter id="filter0_bii_49_30" x="-48" y="-48" width="136" height="136" filterUnits="userSpaceOnUse" color-interpolation-filters="sRGB">
<feFlood flood-opacity="0" result="BackgroundImageFix"/>
<feGaussianBlur in="BackgroundImageFix" stdDeviation="24"/>
<feComposite in2="SourceAlpha" operator="in" result="effect1_backgroundBlur_49_30"/>
<feBlend mode="normal" in="SourceGraphic" in2="effect1_backgroundBlur_49_30" result="shape"/>
<feColorMatrix in="SourceAlpha" type="matrix" values="0 0 0 0 0 0 0 0 0 0 0 0 0 0 0 0 0 0 127 0" result="hardAlpha"/>
<feOffset dy="4"/>
<feGaussianBlur stdDeviation="2"/>
<feComposite in2="hardAlpha" operator="arithmetic" k2="-1" k3="1"/>
<feColorMatrix type="matrix" values="0 0 0 0 1 0 0 0 0 1 0 0 0 0 1 0 0 0 0.15 0"/>
<feBlend mode="normal" in2="shape" result="effect2_innerShadow_49_30"/>
<feColorMatrix in="SourceAlpha" type="matrix" values="0 0 0 0 0 0 0 0 0 0 0 0 0 0 0 0 0 0 127 0" result="hardAlpha"/>
<feOffset/>
<feGaussianBlur stdDeviation="34"/>
<feComposite in2="hardAlpha" operator="arithmetic" k2="-1" k3="1"/>
<feColorMatrix type="matrix" values="0 0 0 0 1 0 0 0 0 1 0 0 0 0 1 0 0 0 0.05 0"/>
<feBlend mode="normal" in2="effect2_innerShadow_49_30" result="effect3_innerShadow_49_30"/>
</filter>
<clipPath id="clip0_49_30">
<rect width="40" height="40" fill="white"/>
</clipPath>
</defs>
</svg>
