<svg width="68" height="68" viewBox="0 0 68 68" fill="none" xmlns="http://www.w3.org/2000/svg">
<g clip-path="url(#clip0_24_72)">
<path d="M4.71394 24.82C3.78606 27.7835 3.29032 30.861 3.29032 34C3.29032 35.9095 3.4669 37.8223 3.81568 39.6857L5.97194 39.2832C5.64839 37.5524 5.48387 35.7746 5.48387 34C5.48387 31.3568 5.86116 28.7596 6.56968 26.2469C8.79065 27.676 11.4262 28.5161 14.2581 28.5161C22.1197 28.5161 28.5161 22.1197 28.5161 14.2581C28.5161 6.39639 22.1197 0 14.2581 0C6.39639 0 0 6.39639 0 14.2581C0 18.4477 1.82723 22.2097 4.71394 24.82ZM14.2581 2.19355C20.91 2.19355 26.3226 7.60613 26.3226 14.2581C26.3226 20.91 20.91 26.3226 14.2581 26.3226C7.60613 26.3226 2.19355 20.91 2.19355 14.2581C2.19355 7.60613 7.60613 2.19355 14.2581 2.19355Z" fill="#C3D0DF"/>
<path d="M63.2861 43.18C64.214 40.2165 64.7097 37.1379 64.7097 34C64.7097 32.0894 64.5331 30.1767 64.1843 28.3143L62.0281 28.7179C62.3516 30.4476 62.5161 32.2243 62.5161 34C62.5161 36.6421 62.1389 39.2393 61.4303 41.7531C59.2094 40.324 56.5738 39.4839 53.742 39.4839C45.8803 39.4839 39.4839 45.8803 39.4839 53.7419C39.4839 61.6036 45.8803 68 53.742 68C61.6036 68 68 61.6036 68 53.7419C68 49.5523 66.1728 45.7903 63.2861 43.18ZM53.742 65.8065C47.09 65.8065 41.6774 60.3939 41.6774 53.7419C41.6774 47.09 47.09 41.6774 53.742 41.6774C60.3939 41.6774 65.8065 47.09 65.8065 53.7419C65.8065 60.3939 60.3939 65.8065 53.742 65.8065Z" fill="#C3D0DF"/>
<path d="M13.1613 21.9355H15.3548V16.4517H19.7419V14.2581H15.3548V8.77424H19.7419V6.58069H13.1613V14.2581H8.77417V16.4517H13.1613V21.9355Z" fill="#C3D0DF"/>
<path d="M17.5484 46.0646H10.9678C7.94395 46.0646 5.48389 48.5246 5.48389 51.5484V55.9355C5.48389 58.9593 7.94395 61.4194 10.9678 61.4194H17.5484C20.5722 61.4194 23.0323 58.9593 23.0323 55.9355V51.5484C23.0323 48.5246 20.5722 46.0646 17.5484 46.0646ZM20.8387 55.9355C20.8387 57.7496 19.3625 59.2259 17.5484 59.2259H10.9678C9.15369 59.2259 7.67744 57.7496 7.67744 55.9355V51.5484C7.67744 49.7344 9.15369 48.2581 10.9678 48.2581H17.5484C19.3625 48.2581 20.8387 49.7344 20.8387 51.5484V55.9355Z" fill="#C3D0DF"/>
<path d="M48.2581 61.0892L61.4841 53.7419L48.2581 46.3947V61.0892ZM50.4516 50.1215L56.9675 53.7419L50.4516 57.3624V50.1215Z" fill="#C3D0DF"/>
<path d="M51.5485 21.9355H55.9356C58.3551 21.9355 60.3227 19.9679 60.3227 17.5484C60.3227 15.1289 58.3551 13.1613 55.9356 13.1613H51.5485C50.3387 13.1613 49.3549 12.1775 49.3549 10.9678C49.3549 9.75804 50.3387 8.77424 51.5485 8.77424H55.9356C57.1453 8.77424 58.1291 9.75804 58.1291 10.9678V12.0646H60.3227V10.9678C60.3227 8.5483 58.3551 6.58069 55.9356 6.58069H51.5485C49.129 6.58069 47.1614 8.5483 47.1614 10.9678C47.1614 13.3873 49.129 15.3549 51.5485 15.3549H55.9356C57.1453 15.3549 58.1291 16.3387 58.1291 17.5484C58.1291 18.7582 57.1453 19.742 55.9356 19.742H51.5485C50.3387 19.742 49.3549 18.7582 49.3549 17.5484V16.4517H47.1614V17.5484C47.1614 19.9679 49.129 21.9355 51.5485 21.9355Z" fill="#C3D0DF"/>
<path d="M14.2581 50.4517C12.444 50.4517 10.9678 51.9279 10.9678 53.742C10.9678 55.556 12.444 57.0323 14.2581 57.0323C16.0722 57.0323 17.5484 55.556 17.5484 53.742C17.5484 51.9279 16.0722 50.4517 14.2581 50.4517ZM14.2581 54.8388C13.6538 54.8388 13.1613 54.3474 13.1613 53.742C13.1613 53.1366 13.6538 52.6452 14.2581 52.6452C14.8624 52.6452 15.3549 53.1366 15.3549 53.742C15.3549 54.3474 14.8624 54.8388 14.2581 54.8388Z" fill="#C3D0DF"/>
<path d="M41.762 6.55542C40.3274 8.77968 39.484 11.4196 39.484 14.2581C39.484 22.1197 45.8804 28.5161 53.7421 28.5161C61.6037 28.5161 68.0001 22.1197 68.0001 14.2581C68.0001 6.39639 61.6037 0 53.7421 0C49.5557 0 45.7981 1.82394 43.1867 4.70626C38.4059 3.21245 33.239 2.89439 28.3145 3.81568L28.7181 5.97194C33.0251 5.16581 37.5405 5.36871 41.762 6.55542ZM53.7421 2.19355C60.394 2.19355 65.8066 7.60613 65.8066 14.2581C65.8066 20.91 60.394 26.3226 53.7421 26.3226C47.0901 26.3226 41.6776 20.91 41.6776 14.2581C41.6776 7.60613 47.0901 2.19355 53.7421 2.19355Z" fill="#C3D0DF"/>
<path d="M26.2381 61.4446C27.6727 59.2203 28.5161 56.5804 28.5161 53.742C28.5161 45.8803 22.1197 39.4839 14.2581 39.4839C6.39639 39.4839 0 45.8803 0 53.742C0 61.6036 6.39639 68 14.2581 68C18.4477 68 22.2097 66.1728 24.82 63.285C27.7824 64.214 30.8599 64.7097 34 64.7097C35.9139 64.7097 37.8266 64.5331 39.6857 64.1843L39.2821 62.0292C34.9838 62.8342 30.4607 62.6302 26.2381 61.4446ZM14.2581 65.8065C7.60613 65.8065 2.19355 60.3939 2.19355 53.742C2.19355 47.09 7.60613 41.6774 14.2581 41.6774C20.91 41.6774 26.3226 47.09 26.3226 53.742C26.3226 60.3939 20.91 65.8065 14.2581 65.8065Z" fill="#C3D0DF"/>
<path d="M41.6774 34.0001C41.6774 29.7665 38.2335 26.3226 33.9999 26.3226C29.7664 26.3226 26.3225 29.7665 26.3225 34.0001C26.3225 38.2325 29.7664 41.6775 33.9999 41.6775C38.2335 41.6775 41.6774 38.2325 41.6774 34.0001ZM33.9999 39.4839C30.9761 39.4839 28.5161 37.0239 28.5161 34.0001C28.5161 30.9762 30.9761 28.5162 33.9999 28.5162C37.0237 28.5162 39.4838 30.9762 39.4838 34.0001C39.4838 37.0239 37.0237 39.4839 33.9999 39.4839Z" fill="#C3D0DF"/>
<path d="M46.0644 32.9032H43.8708V35.0967H46.0644V32.9032Z" fill="#C3D0DF"/>
<path d="M35.0969 21.9354H32.9033V24.129H35.0969V21.9354Z" fill="#C3D0DF"/>
<path d="M35.0969 43.871H32.9033V46.0645H35.0969V43.871Z" fill="#C3D0DF"/>
<path d="M24.1291 32.9032H21.9355V35.0967H24.1291V32.9032Z" fill="#C3D0DF"/>
</g>
<defs>
<clipPath id="clip0_24_72">
<rect width="68" height="68" fill="white"/>
</clipPath>
</defs>
</svg>
