<svg width="99" height="99" viewBox="0 0 99 99" fill="none" xmlns="http://www.w3.org/2000/svg">
<g clip-path="url(#clip0_24_3)">
<path d="M93.6826 32.5827H67.5959C67.5685 32.5827 67.5418 32.5852 67.5147 32.5867C66.5587 31.6893 65.5316 30.8562 64.4362 30.0982C63.7773 29.6428 62.8743 29.8074 62.4183 30.4656C61.9628 31.1241 62.1271 32.0277 62.7857 32.4835C69.1911 36.9149 73.015 44.2039 73.015 51.9814C73.015 65.0454 62.3866 75.6738 49.3227 75.6738C36.2589 75.6738 25.6306 65.0454 25.6306 51.9814C25.6306 38.9177 36.2589 28.2893 49.3227 28.2893C51.916 28.2893 54.4647 28.7052 56.8977 29.5256C57.6569 29.7822 58.4796 29.3739 58.7352 28.6149C58.9912 27.856 58.5834 27.0332 57.8245 26.7774C55.0921 25.8561 52.2318 25.3889 49.3227 25.3889C34.6595 25.3889 22.7302 37.3182 22.7302 51.9814C22.7302 66.6447 34.6595 78.5742 49.3227 78.5742C63.9859 78.5742 75.9154 66.6447 75.9154 51.9814C75.9154 45.9204 73.8449 40.125 70.1742 35.483H93.6826C95.0154 35.483 96.0996 36.5672 96.0996 37.9V83.5433H84.6291C83.8281 83.5433 83.1789 84.1924 83.1789 84.9935C83.1789 85.7946 83.8281 86.4437 84.6291 86.4437H96.0996V94.0597C96.0996 95.3926 95.0154 96.4767 93.6826 96.4767H5.31738C3.98456 96.4767 2.90039 95.3926 2.90039 94.0597V86.4437H77.3256C78.1267 86.4437 78.7758 85.7946 78.7758 84.9935C78.7758 84.1924 78.1267 83.5433 77.3256 83.5433H2.90039V37.9C2.90039 36.5672 3.98456 35.483 5.31738 35.483H22.6111C23.4121 35.483 24.0613 34.8339 24.0613 34.0329C24.0613 33.2318 23.4121 32.5827 22.6111 32.5827H5.31738C2.38528 32.5827 0 34.9681 0 37.9V94.0595C0 96.9914 2.38528 99.3769 5.31738 99.3769H37.1049V110.71H32.7268C31.9258 110.71 31.2767 111.36 31.2767 112.161C31.2767 112.962 31.9258 113.611 32.7268 113.611H65.9185C66.7196 113.611 67.3687 112.962 67.3687 112.161C67.3687 111.36 66.7196 110.71 65.9185 110.71H61.5405V99.3769H93.6826C96.6147 99.3769 99 96.9914 99 94.0595V37.9C99 34.9681 96.6147 32.5827 93.6826 32.5827ZM58.6403 110.711H40.0053V99.3771H58.6403V110.711Z" fill="#C3D0DF"/>
<path d="M38.9897 40.3974C38.6803 38.7579 37.2448 37.5676 35.5761 37.5676H34.0254C33.2243 37.5676 32.5752 38.2167 32.5752 39.0178C32.5752 39.8189 33.2243 40.468 34.0254 40.468H35.5761C35.8517 40.468 36.0885 40.6645 36.1396 40.9354L40.4314 63.6675C40.5607 64.3525 41.1594 64.8485 41.8564 64.8485H42.8348C42.4066 65.3273 42.1438 65.9574 42.1438 66.6504C42.1438 68.1451 43.3556 69.3569 44.8502 69.3569C46.3449 69.3569 47.5567 68.1451 47.5567 66.6504C47.5567 65.9574 47.2941 65.3273 46.8656 64.8485H52.8315C52.4032 65.3273 52.1405 65.9574 52.1405 66.6504C52.1405 68.1451 53.3522 69.3569 54.8469 69.3569C56.3416 69.3569 57.5534 68.1451 57.5534 66.6504C57.5534 65.9574 57.2908 65.3273 56.8623 64.8485H58.1673C58.9684 64.8485 59.6175 64.1994 59.6175 63.3983C59.6175 62.5972 58.9684 61.9481 58.1673 61.9481H43.058L42.4663 58.8143H58.6733C59.3702 58.8143 59.9682 58.319 60.0982 57.6341L62.6722 44.055C62.6737 44.0463 62.6754 44.0376 62.6768 44.0289C62.7632 43.5214 62.6227 43.0047 62.2907 42.6112C61.9587 42.2177 61.4729 41.9921 60.958 41.9921H39.2908L38.9897 40.3974ZM41.1526 51.8534H45.1091L45.4059 55.914H41.9195L41.1526 51.8534ZM51.5086 51.8534L51.2118 55.914H48.3141L48.0173 51.8534H51.5086ZM47.8053 48.953L47.5085 44.8927H52.0173L51.7205 48.953H47.8053ZM54.1201 55.914L54.4169 51.8534H58.2423L57.4725 55.914H54.1201ZM58.7922 48.953H54.629L54.9258 44.8927H59.562L58.7922 48.953ZM44.6002 44.8927L44.897 48.953H40.605L39.8384 44.8927H44.6002Z" fill="#C3D0DF"/>
<path d="M9.4458 73.1934H18.0234C18.8245 73.1934 19.4736 72.5443 19.4736 71.7432C19.4736 70.9421 18.8245 70.293 18.0234 70.293H9.4458C8.64471 70.293 7.99561 70.9421 7.99561 71.7432C7.99561 72.5443 8.64471 73.1934 9.4458 73.1934Z" fill="#C3D0DF"/>
<path d="M9.4458 79.7345H25.4509C26.252 79.7345 26.9011 79.0854 26.9011 78.2843C26.9011 77.4832 26.252 76.8341 25.4509 76.8341H9.4458C8.64471 76.8341 7.99561 77.4832 7.99561 78.2843C7.99561 79.0854 8.64471 79.7345 9.4458 79.7345Z" fill="#C3D0DF"/>
<path d="M86.0309 40.9543C85.2298 40.9543 84.5807 41.6035 84.5807 42.4045V46.0341H80.9512C80.1501 46.0341 79.501 46.6832 79.501 47.4843C79.501 48.2854 80.1501 48.9345 80.9512 48.9345H84.5807V52.564C84.5807 53.3651 85.2298 54.0142 86.0309 54.0142C86.832 54.0142 87.4811 53.3651 87.4811 52.564V48.9345H91.1105C91.9116 48.9345 92.5607 48.2854 92.5607 47.4843C92.5607 46.6832 91.9116 46.0341 91.1105 46.0341H87.4811V42.4045C87.4811 41.6036 86.8318 40.9543 86.0309 40.9543Z" fill="#C3D0DF"/>
</g>
<defs>
<clipPath id="clip0_24_3">
<rect width="99" height="99" fill="white"/>
</clipPath>
</defs>
</svg>
