<svg width="68" height="68" viewBox="0 0 68 68" fill="none" xmlns="http://www.w3.org/2000/svg">
<g clip-path="url(#clip0_24_12)">
<path d="M58.2833 9.04614C57.3941 9.04614 56.6733 9.76692 56.6733 10.6561C56.6733 11.5453 57.3941 12.266 58.2833 12.266C59.1725 12.266 59.8932 11.5453 59.8932 10.6561C59.8932 9.76692 59.1725 9.04614 58.2833 9.04614Z" fill="#C3D0DF"/>
<path d="M52.7828 12.266C53.672 12.266 54.3928 11.5452 54.3928 10.6561C54.3928 9.76694 53.672 9.04614 52.7828 9.04614C51.8937 9.04614 51.1729 9.76694 51.1729 10.6561C51.1729 11.5452 51.8937 12.266 52.7828 12.266Z" fill="#C3D0DF"/>
<path d="M47.2823 12.266C48.1715 12.266 48.8923 11.5452 48.8923 10.6561C48.8923 9.76694 48.1715 9.04614 47.2823 9.04614C46.3932 9.04614 45.6724 9.76694 45.6724 10.6561C45.6724 11.5452 46.3932 12.266 47.2823 12.266Z" fill="#C3D0DF"/>
<path d="M68 7.83873C68 5.81002 66.3494 4.15942 64.3207 4.15942H3.6793C1.65059 4.15929 0 5.80988 0 7.83873V51.4865C0 52.0366 0.445852 52.4826 0.996094 52.4826C1.54634 52.4826 1.99219 52.0366 1.99219 51.4865V17.1531H66.0078V22.4192C66.0078 22.9693 66.4537 23.4152 67.0039 23.4152C67.5541 23.4152 68 22.9693 68 22.4192V7.83873ZM1.99219 15.1608V7.83873C1.99219 6.90851 2.74895 6.15161 3.6793 6.15161H64.3207C65.251 6.15161 66.0078 6.90851 66.0078 7.83873V15.1609H1.99219V15.1608Z" fill="#C3D0DF"/>
<path d="M67.0039 26.0714C66.4537 26.0714 66.0078 26.5174 66.0078 27.0675V60.1617C66.0078 61.0918 65.2512 61.8484 64.3211 61.8484H3.67891C2.74882 61.8484 1.99219 61.0918 1.99219 60.1617V56.1348C1.99219 55.5847 1.54634 55.1388 0.996094 55.1388C0.445852 55.1388 0 55.5847 0 56.1348V60.1617C0 62.1903 1.65033 63.8406 3.67891 63.8406H64.3211C66.3497 63.8406 68 62.1903 68 60.1617V27.0675C68 26.5174 67.5541 26.0714 67.0039 26.0714Z" fill="#C3D0DF"/>
<path d="M34.846 38.5052H22.5967C22.0464 38.5052 21.6006 38.9512 21.6006 39.5013V58.552C21.6006 59.1021 22.0464 59.548 22.5967 59.548H56.942C57.4922 59.548 57.9381 59.1021 57.9381 58.552V46.8649C61.3459 46.3793 63.9751 43.4432 63.9751 39.9034C63.9751 36.0251 60.8199 32.8699 56.9417 32.8699C53.5421 32.8699 50.6985 35.2945 50.0482 38.5051H39.4944C38.9442 38.5051 38.4983 38.9511 38.4983 39.5012C38.4983 40.0513 38.9442 40.4973 39.4944 40.4973H49.9352C50.2103 43.7673 52.7305 46.4069 55.9459 46.8649V57.5557H23.5928V40.4973H34.846C35.3962 40.4973 35.8421 40.0513 35.8421 39.5012C35.8421 38.9511 35.3962 38.5052 34.846 38.5052ZM51.9004 39.9035C51.9004 37.1237 54.162 34.8622 56.9417 34.8622C59.7215 34.8622 61.9829 37.1237 61.9829 39.9035C61.9829 42.6806 59.7257 44.9401 56.9496 44.9445C56.947 44.9445 56.9445 44.9441 56.942 44.9441C56.9393 44.9441 56.9368 44.9445 56.9342 44.9445C54.158 44.9403 51.9004 42.6806 51.9004 39.9035Z" fill="#C3D0DF"/>
<path d="M32.0174 43.9439C31.8277 43.4829 31.3834 43.1852 30.885 43.1852C30.8846 43.1852 30.8843 43.1852 30.8839 43.1852C30.3851 43.1856 29.9406 43.484 29.7517 43.9458C29.7487 43.9534 29.7455 43.9611 29.7427 43.9686L25.9586 53.9043C25.7627 54.4185 26.0209 54.9939 26.535 55.1897C26.6516 55.2342 26.7714 55.2552 26.8893 55.2552C27.2906 55.2552 27.669 55.0108 27.8204 54.6133L28.5184 52.7804H33.2234L33.9141 54.6105C34.1082 55.1252 34.6832 55.3852 35.1977 55.1908C35.7123 54.9965 35.9721 54.4218 35.7778 53.9071L32.0281 43.971C32.0247 43.9619 32.0211 43.9528 32.0174 43.9439ZM29.277 50.7882L30.8815 46.5754L32.4714 50.7882H29.277Z" fill="#C3D0DF"/>
<path d="M50.751 53.2474C50.1819 53.2474 49.6361 53.0203 49.2914 52.6396C48.922 52.232 48.2921 52.2011 47.8843 52.5704C47.4767 52.9398 47.4457 53.5697 47.8152 53.9774C48.542 54.7796 49.612 55.2396 50.751 55.2396C52.181 55.2396 53.383 54.3194 53.6094 53.0516C53.7812 52.0894 53.3549 50.8364 51.6433 50.205C50.9054 49.9329 50.216 49.6373 49.9672 49.5288C49.9024 49.465 49.8969 49.385 49.9054 49.325C49.9271 49.1731 50.0569 49.0508 50.2613 48.9891C51.0382 48.7553 51.7799 49.3319 51.8062 49.3528C52.2273 49.7006 52.8509 49.6444 53.203 49.2255C53.5569 48.8044 53.5024 48.1761 53.0814 47.8221C52.5078 47.3401 51.1474 46.6415 49.6867 47.0815C48.7377 47.3674 48.066 48.1187 47.9335 49.0419C47.8084 49.9132 48.1862 50.7516 48.9197 51.2298C48.9638 51.2585 49.0101 51.2836 49.058 51.305C49.0947 51.3215 49.9694 51.7107 50.9539 52.074C51.3197 52.2089 51.6941 52.4445 51.6484 52.7012C51.6089 52.9216 51.2966 53.2474 50.751 53.2474Z" fill="#C3D0DF"/>
<path d="M43.5293 54.5837C43.6685 54.966 44.034 55.2395 44.4645 55.2395C45.0148 55.2395 45.4606 54.7935 45.4606 54.2434V44.7699C45.4606 44.2198 45.0148 43.7738 44.4645 43.7738C43.9143 43.7738 43.4685 44.2198 43.4685 44.7699V47.5109C42.8335 47.12 42.0867 46.8941 41.2879 46.8941C38.9871 46.8941 37.1152 48.766 37.1152 51.0667C37.1152 53.3674 38.9871 55.2394 41.2879 55.2394C42.1126 55.2395 42.8814 54.9981 43.5293 54.5837ZM39.1074 51.0668C39.1074 49.8645 40.0856 48.8864 41.2879 48.8864C42.4903 48.8864 43.4685 49.8646 43.4685 51.0668C43.4685 52.269 42.4903 53.2473 41.2879 53.2473C40.0856 53.2473 39.1074 52.2692 39.1074 51.0668Z" fill="#C3D0DF"/>
<path d="M56.9416 41.3122L57.4705 41.841C57.6651 42.0356 57.9199 42.1328 58.1749 42.1328C58.4298 42.1328 58.6848 42.0356 58.8792 41.841C59.2684 41.452 59.2684 40.8214 58.8794 40.4324L58.3504 39.9034L58.8794 39.3744C59.2684 38.9854 59.2684 38.3547 58.8792 37.9657C58.4904 37.5767 57.8596 37.5768 57.4706 37.9657L56.9418 38.4946L56.4129 37.9657C56.0238 37.5767 55.3932 37.5767 55.0042 37.9657C54.6152 38.3547 54.6152 38.9854 55.0042 39.3743L55.5332 39.9033L55.0043 40.4322C54.6152 40.8212 54.6152 41.4518 55.0042 41.8408C55.1987 42.0354 55.4536 42.1326 55.7086 42.1326C55.9635 42.1326 56.2185 42.0354 56.4129 41.8408L56.9416 41.3122Z" fill="#C3D0DF"/>
<path d="M53.9903 19.4539H14.0098C13.4595 19.4539 13.0137 19.8998 13.0137 20.45V24.7431C13.0137 25.2932 13.4595 25.7392 14.0098 25.7392H53.9902C54.5404 25.7392 54.9863 25.2932 54.9863 24.7431V20.45C54.9864 19.8998 54.5404 19.4539 53.9903 19.4539ZM52.9942 23.747H15.0059V21.446H52.9941V23.747H52.9942Z" fill="#C3D0DF"/>
<path d="M4.29297 35.2078C4.29297 35.7579 4.73882 36.2039 5.28906 36.2039H40.1713C40.7216 36.2039 41.1674 35.7579 41.1674 35.2078C41.1674 34.6577 40.7216 34.2117 40.1713 34.2117H5.28906C4.73895 34.2117 4.29297 34.6577 4.29297 35.2078Z" fill="#C3D0DF"/>
<path d="M14.6807 29.9185C14.1304 29.9185 13.6846 30.3644 13.6846 30.9146C13.6846 31.4647 14.1304 31.9106 14.6807 31.9106H40.1716C40.7219 31.9106 41.1677 31.4647 41.1677 30.9146C41.1677 30.3644 40.7219 29.9185 40.1716 29.9185H14.6807Z" fill="#C3D0DF"/>
<path d="M5.28906 40.4971H18.3027C18.8529 40.4971 19.2988 40.0511 19.2988 39.501C19.2988 38.9509 18.8529 38.5049 18.3027 38.5049H5.28906C4.73882 38.5049 4.29297 38.9509 4.29297 39.501C4.29297 40.0511 4.73895 40.4971 5.28906 40.4971Z" fill="#C3D0DF"/>
<path d="M5.28906 44.7902H18.3027C18.8529 44.7902 19.2988 44.3442 19.2988 43.7941C19.2988 43.244 18.8529 42.798 18.3027 42.798H5.28906C4.73882 42.798 4.29297 43.244 4.29297 43.7941C4.29297 44.3442 4.73895 44.7902 5.28906 44.7902Z" fill="#C3D0DF"/>
<path d="M5.28906 49.0834H11.5947C12.145 49.0834 12.5908 48.6374 12.5908 48.0873C12.5908 47.5372 12.145 47.0912 11.5947 47.0912H5.28906C4.73882 47.0912 4.29297 47.5372 4.29297 48.0873C4.29297 48.6374 4.73895 49.0834 5.28906 49.0834Z" fill="#C3D0DF"/>
</g>
<defs>
<clipPath id="clip0_24_12">
<rect width="68" height="68" fill="white"/>
</clipPath>
</defs>
</svg>
