<svg width="53" height="53" viewBox="0 0 53 53" fill="none" xmlns="http://www.w3.org/2000/svg">
<g clip-path="url(#clip0_235_368)">
<path d="M50.4733 31.0437H49.6802V23.8996C49.6802 22.7685 49.1173 21.7671 48.2576 21.1587V20.1859C48.2576 18.7749 47.1097 17.627 45.6987 17.627H45.1065L47.3723 14.3021C48.1318 13.1877 47.843 11.663 46.7285 10.9034L31.3533 0.425526C30.8134 0.0575283 30.1627 -0.0782842 29.5205 0.0435537C28.8786 0.165185 28.3224 0.529456 27.9545 1.06939L14.6837 20.5431H10.9908L11.8818 11.5237C11.8918 11.4221 11.9579 11.334 12.05 11.2993C13.1979 10.8665 14.1927 10.0583 14.851 9.02353C14.9029 8.94207 15.0007 8.89548 15.1019 8.90573L20.8942 9.47797C21.3095 9.51823 21.6789 9.21576 21.7199 8.80066C21.7609 8.38557 21.4577 8.01591 21.0426 7.97492L15.2504 7.40269C14.578 7.33685 13.9369 7.64667 13.5766 8.2127C13.0926 8.97353 12.3612 9.56771 11.5172 9.88592C10.8819 10.1255 10.4457 10.696 10.3786 11.3752L9.47307 20.543H8.51006L9.91912 6.27809C9.96984 5.76465 10.4281 5.38744 10.9422 5.43889L22.6471 6.59516C23.0622 6.63522 23.4318 6.33295 23.4728 5.91786C23.5138 5.50276 23.2106 5.13311 22.7955 5.09211L11.0906 3.93584C9.74863 3.80345 8.54857 4.78736 8.41597 6.12955L7.2802 17.627H5.34601C3.93509 17.627 2.7871 18.7749 2.7871 20.1859V20.8495C1.6328 21.3809 0.829102 22.5477 0.829102 23.8996V49.6434C0.829102 51.4942 2.33484 53 4.1858 53H46.3236C48.1745 53 49.6802 51.4942 49.6802 49.6434V42.4993H50.4733C51.4095 42.4993 52.1711 41.7378 52.1711 40.8017V32.7414C52.1712 31.8053 51.4095 31.0437 50.4733 31.0437ZM45.6987 19.1375C46.2769 19.1374 46.7472 19.6078 46.7472 20.186V20.5708C46.6083 20.5532 46.4672 20.5432 46.3236 20.5432H43.1193L44.0771 19.1375H45.6987ZM29.2026 1.91988C29.3434 1.71336 29.5561 1.57403 29.8017 1.52745C29.8604 1.51637 29.9193 1.51078 29.9778 1.51078C30.1638 1.51078 30.3455 1.56648 30.5027 1.67351L45.878 12.1514C46.3042 12.4419 46.4148 13.0251 46.1243 13.4514L41.2916 20.5429H40.1318L42.5012 17.0661C42.8854 16.5022 42.9171 15.7847 42.5836 15.1933C42.1403 14.4076 41.9606 13.4825 42.0776 12.5882C42.1645 11.9229 41.8718 11.2734 41.3136 10.8931L33.3431 5.46146C32.7849 5.08104 32.0733 5.04615 31.486 5.37047C30.6967 5.80627 29.7699 5.97738 28.8766 5.85233C28.2141 5.75938 27.5421 6.05854 27.1636 6.6139L17.6713 20.543H16.5115L29.2026 1.91988ZM29.5352 14.7445C26.2464 14.7445 23.5467 17.3089 23.3268 20.543H19.4989L28.4115 7.46448C28.4116 7.46448 28.4116 7.46448 28.4116 7.46448C28.4622 7.39006 28.5461 7.34575 28.6324 7.34575C28.6439 7.34575 28.6553 7.34658 28.6668 7.34813C29.8819 7.51811 31.1422 7.28561 32.2159 6.69278C32.3003 6.64599 32.4088 6.65272 32.4925 6.70965L40.4631 12.1414C40.5465 12.1984 40.5924 12.2969 40.5799 12.3926C40.4208 13.6088 40.6653 14.8669 41.2681 15.9354C41.3164 16.0212 41.3105 16.1311 41.2532 16.2155L38.3042 20.5429H35.744C35.5238 17.3089 32.8242 14.7445 29.5352 14.7445ZM34.2295 20.5431H24.8411C25.0575 18.1426 27.0795 16.255 29.5352 16.255C31.991 16.2549 34.0132 18.1426 34.2295 20.5431ZM4.2975 20.1859C4.2975 19.6077 4.76777 19.1373 5.34601 19.1373H7.13103L6.99221 20.543H4.2975V20.1859ZM2.3395 23.8996C2.3395 22.8816 3.16773 22.0534 4.1858 22.0534H46.3236C47.3417 22.0534 48.1698 22.8816 48.1698 23.8996V25.9951H2.3395V23.8996ZM48.1698 49.6434C48.1698 50.6613 47.3417 51.4896 46.3236 51.4896H4.1858C3.16773 51.4896 2.3395 50.6613 2.3395 49.6434V47.5478H6.41201C6.82918 47.5478 7.16716 47.2097 7.16716 46.7927C7.16716 46.3756 6.82907 46.0375 6.41201 46.0375H2.3395V27.5055H48.1698V31.0437H40.9893H40.9892C38.7268 31.0437 36.767 32.3625 35.8369 34.2714C35.8338 34.2778 35.8303 34.284 35.8271 34.2905C35.8192 34.3067 35.8124 34.3236 35.8047 34.3399C35.694 34.5752 35.5977 34.8188 35.5194 35.0701C35.5192 35.0709 35.5189 35.0715 35.5187 35.0722C35.3516 35.6093 35.2614 36.18 35.2614 36.7715C35.2614 39.9299 37.8309 42.4993 40.9891 42.4993H40.9892H48.1697V46.0375H11.2476C10.8305 46.0375 10.4925 46.3756 10.4925 46.7927C10.4925 47.2097 10.8306 47.5478 11.2476 47.5478H48.1698V49.6434ZM50.6608 40.8016C50.6608 40.9049 50.5767 40.9889 50.4733 40.9889H40.9894C39.3906 40.9889 37.9967 40.0947 37.2817 38.7801C37.2492 38.7204 37.2182 38.6597 37.1884 38.5984C37.1291 38.4755 37.0756 38.3493 37.0283 38.2201C36.8625 37.7682 36.772 37.2802 36.772 36.7715C36.772 36.2628 36.8626 35.7749 37.0283 35.3229C37.0757 35.1938 37.1292 35.0676 37.1884 34.9447C37.2182 34.8833 37.2492 34.8226 37.2817 34.7629C37.9967 33.4484 39.3906 32.5541 40.9894 32.5541H50.4733C50.5766 32.5541 50.6608 32.6381 50.6608 32.7414V40.8016Z" fill="#C3D0DF"/>
<path d="M41.1661 33.7075C39.4765 33.7075 38.1021 35.0821 38.1021 36.7716C38.1021 38.4611 39.4765 39.8355 41.1661 39.8355C42.8557 39.8355 44.2302 38.4611 44.2302 36.7716C44.2302 35.0821 42.8557 33.7075 41.1661 33.7075ZM41.1661 38.3251C40.3094 38.3251 39.6124 37.6282 39.6124 36.7716C39.6124 35.915 40.3094 35.2179 41.1661 35.2179C42.0228 35.2179 42.7198 35.9149 42.7198 36.7716C42.7198 37.6283 42.0228 38.3251 41.1661 38.3251Z" fill="#C3D0DF"/>
</g>
<defs>
<clipPath id="clip0_235_368">
<rect width="53" height="53" fill="white"/>
</clipPath>
</defs>
</svg>
