<svg width="53" height="53" viewBox="0 0 53 53" fill="none" xmlns="http://www.w3.org/2000/svg">
<g clip-path="url(#clip0_235_395)">
<path d="M0.869505 26.4882H0.900421C1.37675 26.4886 1.7675 26.1111 1.78373 25.635C2.26161 11.9838 13.7154 1.30477 27.3666 1.78253C32.6174 1.96637 37.6733 3.81746 41.8014 7.06772H37.1004C36.6126 7.06772 36.217 7.46323 36.217 7.95104C36.217 8.43884 36.6126 8.83435 37.1004 8.83435H44.1669H44.1792C44.2484 8.82872 44.3165 8.81514 44.3824 8.79372C44.4276 8.7872 44.4721 8.77748 44.5158 8.76457C44.5405 8.75397 44.5591 8.73188 44.5829 8.71863C44.6622 8.67988 44.735 8.62887 44.7984 8.56759L44.8073 8.5614C44.8297 8.53071 44.8501 8.49858 44.8682 8.46512C44.9145 8.40881 44.9535 8.34676 44.9839 8.28051C45.0082 8.21007 45.0231 8.13675 45.0281 8.06233C45.0383 8.0259 45.0457 7.98869 45.0502 7.95104V0.884531C45.0502 0.396721 44.6547 0.00121776 44.1669 0.00121776C43.6791 0.00121776 43.2836 0.396721 43.2836 0.884531V6.00068C31.966 -3.27212 15.274 -1.61458 6.00122 9.70309C2.32079 14.1952 0.218282 19.7721 0.0171076 25.5758C0.000766264 26.063 0.382247 26.4715 0.869505 26.4882Z" fill="#C3D0DF"/>
<path d="M8.02076 42.9382C7.69658 42.5723 7.13722 42.5385 6.77131 42.8627C6.4054 43.1868 6.37161 43.7462 6.69579 44.1121C7.30384 44.7945 7.94623 45.4454 8.62053 46.0624C8.98721 46.3843 9.54525 46.3479 9.8671 45.9813C10.1798 45.625 10.1555 45.0855 9.81212 44.7587C9.1843 44.1829 8.58641 43.5753 8.02076 42.9382Z" fill="#C3D0DF"/>
<path d="M18.562 49.9323C17.7544 49.659 16.9616 49.3437 16.1867 48.9881C15.7496 48.7716 15.2196 48.9504 15.0031 49.3876C14.7866 49.8247 14.9654 50.3547 15.4026 50.5712C15.4176 50.5786 15.4328 50.5857 15.4483 50.5922C16.279 50.9746 17.1295 51.3131 17.9958 51.6062C18.458 51.7626 18.9595 51.5146 19.1158 51.0524C19.2723 50.5902 19.0243 50.0887 18.562 49.9323Z" fill="#C3D0DF"/>
<path d="M13.9222 47.8008V47.8C13.1881 47.365 12.4764 46.8934 11.7899 46.3867C11.4068 46.0845 10.8515 46.15 10.5493 46.5331C10.2471 46.9161 10.3126 47.4715 10.6957 47.7737C10.71 47.7849 10.7246 47.7959 10.7396 47.8063C11.4739 48.3498 12.2354 48.8554 13.0212 49.3211C13.441 49.5699 13.983 49.4313 14.2318 49.0115C14.4807 48.5916 14.342 48.0496 13.9222 47.8008Z" fill="#C3D0DF"/>
<path d="M6.42112 40.9446C5.92316 40.2523 5.46097 39.5349 5.0361 38.7955C4.7922 38.3723 4.25139 38.2269 3.82818 38.4709C3.40497 38.7148 3.25966 39.2556 3.50357 39.6788C3.95869 40.4695 4.454 41.2363 4.98752 41.9763C5.28044 42.3664 5.83417 42.4451 6.22426 42.1522C6.60319 41.8676 6.69009 41.3348 6.42112 40.9446Z" fill="#C3D0DF"/>
<path d="M3.95692 36.8802C3.95692 36.7571 3.93108 36.6353 3.88128 36.5228L3.87952 36.5166C3.53381 35.738 3.22863 34.9419 2.9653 34.1317C2.83722 33.661 2.35173 33.3832 1.88104 33.5114C1.41035 33.6394 1.13255 34.1249 1.26074 34.5956C1.26825 34.623 1.27697 34.6501 1.28702 34.6767C1.56891 35.5468 1.89562 36.4019 2.26572 37.2383C2.40738 37.558 2.72427 37.7641 3.07394 37.7638C3.56175 37.7636 3.95703 37.368 3.95692 36.8802Z" fill="#C3D0DF"/>
<path d="M1.62501 32.7068C1.62512 32.7068 1.62534 32.7067 1.62545 32.7067C2.10211 32.6051 2.40641 32.1367 2.3056 31.66C2.1296 30.8256 1.99633 29.9827 1.90634 29.1346C1.85489 28.6492 1.41964 28.2974 0.934258 28.3489C0.448878 28.4003 0.0970982 28.8356 0.148551 29.321C0.245274 30.2293 0.388481 31.1321 0.577841 32.0257C0.678981 32.503 1.1478 32.8078 1.62501 32.7068Z" fill="#C3D0DF"/>
<path d="M51.5885 31.8054C51.5881 31.8053 51.5878 31.8053 51.5875 31.8052C51.114 31.6879 50.6351 31.9765 50.5178 32.4499C50.3131 33.278 50.0657 34.0949 49.7767 34.8975C49.6113 35.3565 49.8493 35.8626 50.3084 36.028C50.7675 36.1934 51.2737 35.9554 51.4391 35.4963C51.749 34.6368 52.0143 33.7617 52.234 32.8748C52.3511 32.4013 52.062 31.9225 51.5885 31.8054Z" fill="#C3D0DF"/>
<path d="M23.5425 51.0567C22.6958 50.9559 21.855 50.8114 21.0232 50.6239C20.5473 50.5163 20.0743 50.8149 19.9667 51.2908C19.8592 51.7666 20.1578 52.2397 20.6337 52.3472C21.5252 52.5482 22.4265 52.703 23.334 52.8109C23.3693 52.8152 23.4046 52.8172 23.44 52.8171C23.9279 52.8161 24.3225 52.4197 24.3215 51.9319C24.3206 51.4852 23.9863 51.1095 23.5425 51.0567Z" fill="#C3D0DF"/>
<path d="M49.9587 36.8433C49.5195 36.6313 48.9918 36.8152 48.7793 37.2541C48.408 38.0219 47.997 38.7699 47.548 39.495C47.2982 39.9142 47.4356 40.4563 47.8547 40.7059C48.2636 40.9496 48.7921 40.8254 49.0496 40.4252C49.5304 39.6479 49.9706 38.8462 50.3684 38.0234C50.5812 37.5844 50.3977 37.0561 49.9587 36.8433Z" fill="#C3D0DF"/>
<path d="M47.3497 41.4373C46.9679 41.1337 46.4122 41.1971 46.1085 41.579C46.1032 41.5856 46.098 41.5924 46.093 41.5991V41.5973C45.5718 42.2734 45.0161 42.922 44.4279 43.5406C44.0916 43.8943 44.1056 44.4537 44.4593 44.7901C44.8129 45.1264 45.3724 45.1124 45.7087 44.7587C46.3376 44.0959 46.9326 43.4016 47.4912 42.6785C47.7949 42.2967 47.7315 41.741 47.3497 41.4373Z" fill="#C3D0DF"/>
<path d="M52.1321 26.5422C51.6523 26.5177 51.2433 26.8869 51.2189 27.3667C51.2184 27.3757 51.2181 27.3847 51.2179 27.3937C51.188 28.2461 51.1139 29.0964 50.9962 29.9411C50.9296 30.4238 51.2664 30.8691 51.7488 30.9366C51.7897 30.9426 51.831 30.9456 51.8724 30.9455C52.3126 30.9448 52.6853 30.6201 52.746 30.1841C52.8718 29.2792 52.9511 28.3685 52.9836 27.4555C53.0005 26.9683 52.6195 26.5594 52.1321 26.5422Z" fill="#C3D0DF"/>
<path d="M42.577 45.2975V45.3002C41.9269 45.8551 41.2489 46.3764 40.5455 46.8619C40.1433 47.1399 40.0427 47.6914 40.3207 48.0937C40.5987 48.4959 41.1502 48.5965 41.5524 48.3185C42.3046 47.7961 43.0298 47.236 43.7253 46.6402C44.096 46.323 44.1395 45.7655 43.8224 45.3947C43.5054 45.0239 42.9478 44.9804 42.577 45.2975Z" fill="#C3D0DF"/>
<path d="M33.6647 50.1804C32.8485 50.4264 32.0202 50.6298 31.1829 50.7899C30.7039 50.8821 30.3902 51.3451 30.4824 51.8242C30.5622 52.2394 30.9252 52.5399 31.348 52.5406C31.404 52.5409 31.4599 52.5358 31.515 52.5256C32.4125 52.354 33.3005 52.1356 34.1752 51.8711C34.6385 51.7184 34.8903 51.219 34.7376 50.7557C34.5903 50.3087 34.1185 50.0558 33.6647 50.1804Z" fill="#C3D0DF"/>
<path d="M28.6951 51.1375C28.6789 51.1384 28.6628 51.1398 28.6467 51.1416L28.6511 51.1451C27.9444 51.2052 27.221 51.2334 26.5002 51.2334H26.0965C25.6148 51.2403 25.2211 51.6197 25.1964 52.1008C25.1876 52.5887 25.5758 52.9912 26.0635 53.0001C26.0636 53.0001 26.0637 53.0001 26.0639 53.0001H26.5002C27.2722 53.0001 28.046 52.9656 28.7968 52.9011C29.2839 52.8731 29.656 52.4555 29.6278 51.9685C29.5997 51.4814 29.1821 51.1093 28.6951 51.1375Z" fill="#C3D0DF"/>
<path d="M38.3711 48.2028H38.372C37.6242 48.6123 36.8559 48.9832 36.0701 49.314C35.6181 49.4974 35.4002 50.0125 35.5835 50.4645C35.7668 50.9166 36.282 51.1344 36.734 50.9511C36.7407 50.9485 36.7472 50.9457 36.7537 50.9428C37.5957 50.5885 38.4188 50.1911 39.2199 49.7521C39.6477 49.5177 39.8045 48.9809 39.5701 48.553C39.3359 48.1252 38.799 47.9684 38.3711 48.2028Z" fill="#C3D0DF"/>
<path d="M26.5008 7.95105C16.2561 7.95105 7.95117 16.2559 7.95117 26.5006C7.95117 36.7452 16.2561 45.0501 26.5008 45.0501C36.7456 45.0501 45.0505 36.7452 45.0505 26.5006C45.0389 16.2608 36.7407 7.96275 26.5008 7.95105ZM40.6339 27.3839H43.2388C42.7799 35.9428 35.9432 42.7795 27.3842 43.2384V40.6335C27.3842 40.1457 26.9887 39.7502 26.5008 39.7502C26.013 39.7502 25.6175 40.1457 25.6175 40.6335V43.2384C17.0585 42.7795 10.2217 35.9428 9.76286 27.3839H12.3678C12.8556 27.3839 13.2511 26.9884 13.2511 26.5006C13.2511 26.0128 12.8556 25.6173 12.3678 25.6173H9.76286C10.2217 17.0583 17.0585 10.2216 25.6175 9.76272V12.3676C25.6175 12.8554 26.013 13.2509 26.5008 13.2509C26.9887 13.2509 27.3842 12.8554 27.3842 12.3676V9.76272C35.9432 10.2216 42.7799 17.0583 43.2388 25.6173H40.6339C40.1461 25.6173 39.7506 26.0128 39.7506 26.5006C39.7506 26.9884 40.1461 27.3839 40.6339 27.3839Z" fill="#C3D0DF"/>
<path d="M27.3839 24.0132V15.9009C27.3839 15.4131 26.9884 15.0176 26.5006 15.0176C26.0128 15.0176 25.6173 15.4131 25.6173 15.9009V24.0132C24.8692 24.2804 24.2804 24.8693 24.0132 25.6173H19.4341C18.9463 25.6173 18.5508 26.0128 18.5508 26.5006C18.5508 26.9884 18.9463 27.384 19.4341 27.384H24.0132C24.4972 28.7615 26.0064 29.4858 27.3839 29.0017C28.7614 28.5177 29.4858 27.0085 29.0017 25.631C28.7358 24.8742 28.1407 24.2792 27.3839 24.0132ZM26.5006 27.384C26.0128 27.384 25.6173 26.9884 25.6173 26.5006C25.6173 26.0128 26.0128 25.6173 26.5006 25.6173C26.9884 25.6173 27.3839 26.0128 27.3839 26.5006C27.3839 26.9884 26.9885 27.384 26.5006 27.384Z" fill="#C3D0DF"/>
</g>
<defs>
<clipPath id="clip0_235_395">
<rect width="53" height="53" fill="white"/>
</clipPath>
</defs>
</svg>
