<svg width="802" height="637" viewBox="0 0 802 637" fill="none" xmlns="http://www.w3.org/2000/svg">
<g clip-path="url(#clip0_209_224)">
<path d="M210.337 74.3468H185.906V98.7759H210.337V74.3468Z" fill="#092060"/>
<path d="M214.732 78.7224H190.302V103.151H214.732V78.7224Z" fill="#7A0404"/>
<path d="M574.495 585.434H550.064V609.863H574.495V585.434Z" fill="#092060"/>
<path d="M578.87 589.81H554.439V614.239H578.87V589.81Z" fill="#7A0404"/>
<path d="M704.162 88.749H679.731V113.178H704.162V88.749Z" fill="#092060"/>
<path d="M708.556 93.1248H684.126V117.554H708.556V93.1248Z" fill="#7A0404"/>
<path d="M46.1725 469.234H21.7422V493.663H46.1725V469.234Z" fill="#092060"/>
<path d="M50.5475 473.629H26.1172V498.058H50.5475V473.629Z" fill="#7A0404"/>
<path d="M681.595 481.458H657.165V505.888H681.595V481.458Z" fill="#092060"/>
<path d="M685.971 485.834H661.541V510.263H685.971V485.834Z" fill="#7A0404"/>
<path d="M621.589 156.483H592.488V185.582H621.589V156.483Z" fill="#092060"/>
<path d="M626.808 161.703H597.707V190.802H626.808V161.703Z" fill="#7A0404"/>
<path d="M298.011 563.615H268.91V592.714H298.011V563.615Z" fill="#092060"/>
<path d="M303.23 568.834H274.13V597.933H303.23V568.834Z" fill="#7A0404"/>
<path d="M408.643 0H379.543V29.099H408.643V0Z" fill="#092060"/>
<path d="M413.863 5.21936H384.763V34.3184H413.863V5.21936Z" fill="#7A0404"/>
<path d="M491.275 55.6472H478.226V68.6957H491.275V55.6472Z" fill="#092060"/>
<path d="M493.61 57.9823H480.561V71.0308H493.61V57.9823Z" fill="#7A0404"/>
<path d="M453.755 621.617H440.706V634.665H453.755V621.617Z" fill="#092060"/>
<path d="M456.091 623.971H443.042V637.02H456.091V623.971Z" fill="#7A0404"/>
<path d="M131.178 570.482H118.129V583.531H131.178V570.482Z" fill="#092060"/>
<path d="M133.513 572.817H120.464V585.866H133.513V572.817Z" fill="#7A0404"/>
<path d="M138.85 223.393H129.49L123.74 231.379H133.1L138.85 223.393Z" fill="#092060"/>
<path d="M139.224 347.01H148.584V314.811H139.322L139.224 314.929V347.01Z" fill="#092060"/>
<path d="M148.584 352.053H139.224V352.308H148.584V352.053Z" fill="#092060"/>
<path d="M30.0622 361.138L63.4993 314.595H54.1393L20.7021 361.138V372.44H30.0622V361.138Z" fill="#092060"/>
<path d="M30.0622 382.545H20.7021V401.794H30.0622V382.545Z" fill="#092060"/>
<path d="M146.68 436.858H137.32V444.04H146.68V436.858Z" fill="#092060"/>
<path d="M82.6317 274.959L65.0693 299.369H74.4294L91.9917 274.959H82.6317Z" fill="#092060"/>
<path d="M300.15 346.265H331.31V341.222H290.495C290.862 352.794 292.54 364.288 295.499 375.481H304.859C302.314 365.925 300.736 356.137 300.15 346.265Z" fill="#092060"/>
<path d="M302.563 301.9H293.202C291.25 312.389 290.29 323.038 290.338 333.707C290.338 334.551 290.338 335.335 290.338 336.159H299.737C299.737 335.335 299.737 334.551 299.737 333.707C299.667 323.039 300.613 312.389 302.563 301.9Z" fill="#092060"/>
<path d="M421.869 382.545H444.67V377.561H415.236C414.533 379.146 413.734 380.686 412.842 382.173C409.363 388.471 403.767 393.337 397.046 395.908C398.585 396.43 400.167 396.81 401.775 397.046C409.951 395.738 416.649 390.904 421.869 382.545Z" fill="#092060"/>
<path d="M298.363 384.527C299.554 387.915 300.862 391.185 302.288 394.338H311.648C310.157 391.159 308.842 387.882 307.723 384.527H298.363Z" fill="#092060"/>
<path d="M315.984 402.599H306.624C313.939 415.794 324.494 426.91 337.294 434.896C352.505 444.058 369.99 448.75 387.744 448.435C389.314 448.435 390.845 448.435 392.395 448.298C376.243 447.878 360.479 443.259 346.654 434.896C333.854 426.91 323.299 415.794 315.984 402.599Z" fill="#092060"/>
<path d="M578.929 335.061H593.332V326.839H576.633H575.495L550.849 361.138V379.583H560.209V361.138L578.929 335.061Z" fill="#092060"/>
<path d="M676.846 401.794H667.486V401.971H676.846V401.794Z" fill="#092060"/>
<path d="M670.96 422.338H661.6V444.04H670.96V422.338Z" fill="#092060"/>
<path d="M669.37 352.308H678.73V314.811H669.468L669.37 314.929V352.308Z" fill="#092060"/>
<path d="M626.534 255.789L600.593 291.893H609.953L635.894 255.789H626.534Z" fill="#092060"/>
<path d="M103.824 352.308H113.165L139.224 314.929L139.322 314.811L148.309 301.9H138.949L103.824 352.308Z" fill="#7A0404"/>
<path d="M216.889 331.176H207.529V352.308H216.889V331.176Z" fill="#7A0404"/>
<path d="M216.889 401.794H207.529V444.02H216.889V401.794Z" fill="#7A0404"/>
<path d="M249.66 352.308H240.3V369.262H228.017V377.483H240.3V401.794H249.66V398.478H259.433V393.435H249.66V352.308Z" fill="#7A0404"/>
<path d="M216.889 314.811H207.529V321.914H216.889V314.811Z" fill="#7A0404"/>
<path d="M207.255 231.379L212.827 223.393H203.467L197.895 231.379H207.255Z" fill="#7A0404"/>
<path d="M145.973 291.795H155.333L190.398 241.485H181.038L145.973 291.795Z" fill="#7A0404"/>
<path d="M401.775 448.298C403.326 448.298 404.876 448.435 406.465 448.435C424.117 448.721 441.493 444.029 456.601 434.896C461.295 431.984 465.691 428.619 469.729 424.85H460.369C456.331 428.619 451.935 431.984 447.241 434.896C433.507 443.235 417.837 447.853 401.775 448.298Z" fill="#7A0404"/>
<path d="M364.492 306.923C363.234 314.71 362.578 322.582 362.529 330.469H371.889C371.928 322.581 372.584 314.709 373.852 306.923H364.492Z" fill="#7A0404"/>
<path d="M491.097 395.339C495.128 386.751 498.144 377.723 500.085 368.437H490.724C488.793 377.726 485.777 386.755 481.737 395.339C477.521 404.254 472.013 412.499 465.392 419.807H506.305V414.843H479.049C483.777 408.809 487.818 402.267 491.097 395.339Z" fill="#7A0404"/>
<path d="M397.085 397.379C398.642 397.376 400.197 397.252 401.735 397.007C400.128 396.771 398.545 396.39 397.006 395.869C390.229 393.334 384.578 388.463 381.073 382.133C375.958 373.696 372.956 361.19 372.066 344.617H381.151V339.554H362.529C363.039 358.666 366.107 372.859 371.732 382.133C377.92 392.31 386.371 397.393 397.085 397.379Z" fill="#7A0404"/>
<path d="M747.037 314.811H737.677V352.328H747.037V314.811Z" fill="#7A0404"/>
<path d="M747.037 401.794H737.677V417.276H747.037V401.794Z" fill="#7A0404"/>
<path d="M696.469 276.058L733.164 223.393H723.804L687.109 276.058H696.469Z" fill="#7A0404"/>
<path d="M741.15 427.381H731.79V444.02H741.15V427.381Z" fill="#7A0404"/>
<path d="M779.806 368.967H770.446V401.814H779.806V368.967Z" fill="#7A0404"/>
<path d="M633.971 352.308H643.331L669.37 314.929L669.468 314.811L685.853 291.285H676.493L633.971 352.308Z" fill="#7A0404"/>
<path d="M197.895 231.379L203.468 223.393H194.108H148.21H138.85L133.101 231.379H197.895Z" fill="white"/>
<path d="M228.016 377.561V369.34H240.3V352.387H207.51V331.176H233.844V326.113H195.894V321.895H207.51V314.772H148.642V346.991H167.539V352.053H148.642V352.308H103.804L138.929 301.9H159.179V296.857H137.143V291.795H145.973L181.039 241.485H209.472V236.422H119.659L99.2321 264.854H125.821V269.897H75.5475V274.959H91.9717L74.429 299.369H83.6124V306.923H39.4024V314.536H63.4795L30.1209 361.079V372.381H0V377.561H70.2886V382.624H30.0424V401.873H146.68V426.832H155.216V431.874H174.623V436.937H146.68V444.099H207.51V401.794H240.3V377.561H228.016ZM87.5173 382.624H82.4743V377.561H87.5173V382.624ZM179.744 398.557H174.701V393.514H179.744V398.557Z" fill="white"/>
<path d="M490.724 368.437H409.349V377.561H444.67V382.624H421.868C416.636 390.983 409.925 395.803 401.735 397.085C400.197 397.33 398.642 397.455 397.085 397.458C386.371 397.458 377.913 392.363 371.713 382.173C366.074 372.911 363.007 358.718 362.51 339.593H359.409V330.469H362.529C362.578 322.582 363.234 314.71 364.491 306.923H402.658V301.861H330.426V306.923H324.54V301.861H302.562C300.61 312.362 299.664 323.026 299.737 333.707C299.737 334.551 299.737 335.335 299.737 336.16H313.217V341.222H331.29V346.265H300.149C300.736 356.137 302.313 365.925 304.858 375.481H278.74V384.527H307.723C308.92 387.922 310.235 391.198 311.648 394.338H324.461V402.559H315.906C323.22 415.755 333.775 426.87 346.576 434.857C360.4 443.22 376.164 447.839 392.316 448.259C393.867 448.259 395.417 448.396 397.006 448.396C398.596 448.396 400.126 448.396 401.677 448.259C417.738 447.814 433.408 443.195 447.142 434.857C451.836 431.945 456.233 428.58 460.27 424.811H385.704V419.768H465.274C471.895 412.459 477.403 404.215 481.619 395.299C485.697 386.733 488.753 377.717 490.724 368.437Z" fill="white"/>
<path d="M670.959 422.338V444.04H680.299H722.429H731.789V427.381H741.15H751.177V422.338H678.887H670.959Z" fill="white"/>
<path d="M761.087 352.308H737.657V314.772H678.789V352.288H633.951L676.493 291.226H710.833V283.612H655.889V275.999H687.031L723.725 223.334H659.186L646.039 241.642H665.799V246.684H602.516V255.73H635.874L609.933 291.834H614.701V296.681H629.183V301.743H602.83L590.742 318.696H633.323V326.918H593.332V335.139H578.929L560.209 361.216V379.523H612.719V384.566H577.261V389.413H560.209V401.735H676.827V401.912H680.163V406.994H698.078V412.037H676.827V417.236H737.657V401.755H770.447V368.967H694.154V363.826H770.466V352.23L761.087 352.308ZM689.425 231.379H694.468V236.422H689.425V231.379ZM590.153 363.375H581.107V354.329H590.153V363.375ZM646.549 389.472H641.486V384.429H646.549V389.472ZM699.256 389.845H708.302V398.89H699.256V389.845Z" fill="white"/>
<path d="M629.202 301.802V296.74H614.721V296.955H602.79H596.962L581.401 318.618H590.761L602.849 301.802H629.202Z" fill="#092060"/>
<path d="M665.799 246.743V241.7H646.039L659.186 223.393H649.826L633.049 246.743H639.387H665.799Z" fill="#092060"/>
<path d="M111.712 269.897H125.821V264.854H99.252L119.66 236.422H110.3L89.8919 264.854H89.6761V265.148L86.2617 269.897H89.6761H111.712Z" fill="#092060"/>
<path d="M146.68 426.753V401.794H137.32V426.753H119.091V431.796H155.236V426.753H146.68Z" fill="#092060"/>
<path d="M779.806 358.842V352.308H770.446V363.905H772.389H797.251H802V358.842H779.806Z" fill="#7A0404"/>
<path d="M230.567 431.796H225.504V436.858H230.567V431.796Z" fill="#7A0404"/>
<path d="M694.487 231.38H689.425V236.442H694.487V231.38Z" fill="#7A0404"/>
<path d="M78.0782 248.215H73.0352V253.277H78.0782V248.215Z" fill="#092060"/>
<path d="M179.822 393.435H174.76V398.498H179.822V393.435Z" fill="#092060"/>
<path d="M646.609 384.429H641.546V389.491H646.609V384.429Z" fill="#092060"/>
<path d="M222.856 236.422H217.793V241.485H222.856V236.422Z" fill="white"/>
<path d="M583.697 273.527H578.635V278.589H583.697V273.527Z" fill="white"/>
<path d="M187.573 284.947H182.511V290.009H187.573V284.947Z" fill="white"/>
<path d="M9.90934 324.426H4.84668V329.488H9.90934V324.426Z" fill="white"/>
<path d="M635.875 426.753H630.832V431.796H635.875V426.753Z" fill="white"/>
<path d="M764.579 422.338H759.517V427.381H764.579V422.338Z" fill="white"/>
<path d="M326.306 257.869H316.946C313.827 262.42 311.058 267.202 308.666 272.173C304.936 280.09 302.093 288.394 300.188 296.936H309.549C311.468 288.396 314.317 280.092 318.045 272.173C320.432 267.202 323.194 262.42 326.306 257.869Z" fill="#092060"/>
<path d="M352.541 232.537C366.368 224.176 382.13 219.551 398.282 219.116C396.732 219.116 395.201 218.979 393.631 218.979C375.875 218.67 358.391 223.369 343.181 232.537C336.009 236.964 329.529 242.426 323.951 248.745H333.311C338.889 242.426 345.369 236.964 352.541 232.537Z" fill="#092060"/>
<path d="M428.05 285.339C422.817 276.68 416.008 271.702 407.623 270.407C406.014 270.649 404.432 271.037 402.894 271.565C409.615 274.136 415.21 279.001 418.69 285.3C424.864 295.477 427.965 311.6 427.991 333.668C428.07 342.257 427.466 350.839 426.186 359.333H435.546C436.819 350.838 437.416 342.257 437.331 333.668C437.331 311.639 434.238 295.53 428.05 285.339Z" fill="#092060"/>
<path d="M474.007 250.746H483.367C477.443 243.575 470.383 237.423 462.468 232.537C447.362 223.398 429.986 218.699 412.332 218.979C410.743 218.979 409.193 218.979 407.643 219.116C423.704 219.577 439.371 224.202 453.108 232.537C461.027 237.418 468.088 243.57 474.007 250.746Z" fill="#7A0404"/>
<path d="M402.973 270.034C392.861 270.034 384.763 274.613 378.68 283.77H355.133V288.812H375.815C374.558 291.441 373.508 294.163 372.676 296.955H382.036C383.205 292.925 384.873 289.055 387 285.437C390.506 279.107 396.156 274.237 402.934 271.702C404.472 271.174 406.055 270.786 407.663 270.544C406.115 270.251 404.547 270.081 402.973 270.034Z" fill="#7A0404"/>
<path d="M500.006 331.156C500.006 332.019 500.006 332.843 500.006 333.707C500.034 342.295 499.431 350.873 498.201 359.372H507.561C508.679 351.632 509.263 343.823 509.308 336.003H530.01V331.156H500.006Z" fill="#7A0404"/>
<path d="M487.625 272.095C495.016 287.543 499.104 305.55 499.889 326.113H509.249C508.451 305.563 504.363 287.556 496.985 272.095C495.13 268.226 493.046 264.472 490.745 260.851H481.385C483.686 264.472 485.77 268.226 487.625 272.095Z" fill="#7A0404"/>
<path d="M500.007 331.156H484.564V326.113H499.889C499.104 305.563 495.016 287.556 487.625 272.095C485.77 268.226 483.687 264.472 481.385 260.851H526.792V255.789H437.332V250.746H474.007C468.088 243.57 461.027 237.418 453.109 232.537C439.377 224.205 423.718 219.58 407.662 219.116C406.112 219.116 404.582 218.979 402.992 218.979C401.403 218.979 399.853 218.979 398.302 219.116C382.15 219.551 366.388 224.176 352.562 232.537C345.389 236.964 338.909 242.426 333.332 248.745H336.452V257.869H326.326C323.207 262.42 320.438 267.202 318.045 272.173C314.323 280.067 311.474 288.344 309.549 296.857H372.655C373.488 294.065 374.538 291.343 375.795 288.714H355.093V283.671H378.64C384.723 274.593 392.821 270.015 402.933 269.936C404.491 269.939 406.046 270.064 407.584 270.309C415.93 271.617 422.739 276.594 428.011 285.241C434.199 295.418 437.293 311.541 437.293 333.609C437.377 342.198 436.78 350.779 435.507 359.274H498.3C499.53 350.775 500.133 342.196 500.105 333.609C500.066 332.843 500.027 332.019 500.007 331.156ZM354.799 257.79H345.753V248.745H354.799V257.79ZM463.646 293.796H458.681V288.753H463.725L463.646 293.796ZM487.056 352.328H482.032V347.265H487.095L487.056 352.328Z" fill="white"/>
<path d="M525.162 297.387H516.116V306.433H525.162V297.387Z" fill="#7A0404"/>
<path d="M708.36 389.845H699.314V398.89H708.36V389.845Z" fill="#7A0404"/>
<path d="M737.854 238.031H730.515V245.37H737.854V238.031Z" fill="#7A0404"/>
<path d="M577.261 389.472V384.625H550.849V389.472V401.794H560.209V389.472H577.261Z" fill="#092060"/>
<path d="M697.98 412.076V407.033H680.163H671.568H667.486V417.276H676.846V412.076H697.98Z" fill="#092060"/>
<path d="M261.296 264.56V262.205H248.247V275.254H250.582V264.56H261.296Z" fill="#092060"/>
<path d="M250.582 264.56V275.254V277.589H263.631V264.56H261.296H250.582Z" fill="#7A0404"/>
<path d="M590.35 448.455H577.301V461.503H590.35V448.455Z" fill="#092060"/>
<path d="M592.684 450.79H579.635V463.838H592.684V450.79Z" fill="#7A0404"/>
<path d="M87.8313 168.551H74.7822V181.599H87.8313V168.551Z" fill="#092060"/>
<path d="M90.1663 170.886H77.1172V183.934H90.1663V170.886Z" fill="#7A0404"/>
<path d="M160.593 498.196H147.544V511.244H160.593V498.196Z" fill="#092060"/>
<path d="M162.927 500.531H149.878V513.579H162.927V500.531Z" fill="#7A0404"/>
</g>
<defs>
<clipPath id="clip0_209_224">
<rect width="802" height="637" fill="white"/>
</clipPath>
</defs>
</svg>
