<svg width="40" height="40" viewBox="0 0 40 40" fill="none" xmlns="http://www.w3.org/2000/svg">
<g clip-path="url(#clip0_49_39)" filter="url(#filter0_bii_49_39)">
<path d="M39.9145 30.9927C39.8014 30.6518 39.0816 30.1496 37.7556 29.4873C37.3964 29.2786 36.8845 28.9949 36.2222 28.635C35.5593 28.2751 34.9576 27.9434 34.4182 27.6403C33.8777 27.3373 33.3714 27.0438 32.8982 26.7601C32.8226 26.7033 32.5859 26.5378 32.1882 26.2626C31.7901 25.9882 31.4543 25.7845 31.1792 25.6517C30.9047 25.5196 30.6346 25.4532 30.3695 25.4532C29.9908 25.4532 29.5177 25.7232 28.9498 26.2626C28.3818 26.8027 27.8608 27.3894 27.3876 28.0244C26.9142 28.6591 26.4122 29.2458 25.8825 29.7856C25.3519 30.3256 24.916 30.5954 24.5755 30.5954C24.4046 30.5954 24.1914 30.5477 23.936 30.4537C23.6807 30.3591 23.4864 30.278 23.3531 30.2126C23.221 30.1458 22.9942 30.0137 22.672 29.8142C22.3492 29.6153 22.1697 29.5063 22.1319 29.4873C19.5374 28.0476 17.3122 26.3998 15.456 24.5444C13.6003 22.6879 11.9524 20.4629 10.5131 17.868C10.4941 17.8301 10.385 17.6501 10.1863 17.3283C9.98728 17.0063 9.85464 16.7793 9.78837 16.6464C9.7221 16.5139 9.6416 16.3197 9.54708 16.0641C9.45255 15.8084 9.40508 15.5955 9.40508 15.4249C9.40508 15.0842 9.67504 14.6483 10.2148 14.118C10.7545 13.5879 11.3418 13.0858 11.976 12.6127C12.6108 12.1396 13.1974 11.6186 13.7373 11.0506C14.2771 10.4823 14.5469 10.0091 14.5469 9.6304C14.5469 9.36542 14.4806 9.09527 14.3482 8.82074C14.2157 8.54562 14.0121 8.20989 13.7373 7.81198C13.4625 7.41427 13.2968 7.17775 13.2399 7.10163C12.9561 6.62849 12.6629 6.12192 12.3595 5.58212C12.0561 5.04241 11.725 4.44082 11.365 3.77803C11.0053 3.11554 10.7214 2.60399 10.5129 2.24419C9.85036 0.918711 9.34857 0.198707 9.00757 0.0854731C8.87493 0.0286569 8.67593 0 8.41105 0C7.89941 0 7.23194 0.0945278 6.40815 0.284181C5.58407 0.473535 4.93561 0.672143 4.46207 0.8808C3.51511 1.27831 2.51142 2.43354 1.45072 4.34609C0.484841 6.126 0.00195312 7.8877 0.00195312 9.6299C0.00195312 10.1408 0.0350876 10.638 0.101357 11.1213C0.167626 11.6042 0.286034 12.1488 0.456682 12.755C0.627031 13.361 0.764444 13.8111 0.868326 14.1042C0.972306 14.3976 1.16644 14.9231 1.45062 15.6809C1.7344 16.4385 1.90505 16.9023 1.96186 17.0727C2.62465 18.9289 3.41063 20.5859 4.31959 22.0443C5.81512 24.4684 7.85602 26.9736 10.4411 29.5589C13.0263 32.1439 15.531 34.1847 17.9553 35.6809C19.4135 36.5897 21.0711 37.3756 22.9269 38.0389C23.0975 38.0954 23.5613 38.2657 24.3186 38.5504C25.0762 38.8344 25.6019 39.0286 25.8952 39.1327C26.1886 39.237 26.6389 39.3745 27.2444 39.5452C27.8511 39.7158 28.3952 39.8342 28.8781 39.901C29.3613 39.9664 29.8585 40.0001 30.3696 40.0001C32.1117 40.0001 33.8735 39.5169 35.6537 38.5511C37.566 37.4908 38.721 36.4869 39.1187 35.5393C39.3278 35.0662 39.5259 34.4176 39.7153 33.5935C39.9052 32.7698 39.9996 32.1024 39.9996 31.5909C40.0002 31.3249 39.9716 31.1264 39.9145 30.9927Z" fill="white" fill-opacity="0.01"/>
</g>
<defs>
<filter id="filter0_bii_49_39" x="-48" y="-48" width="136" height="136" filterUnits="userSpaceOnUse" color-interpolation-filters="sRGB">
<feFlood flood-opacity="0" result="BackgroundImageFix"/>
<feGaussianBlur in="BackgroundImageFix" stdDeviation="24"/>
<feComposite in2="SourceAlpha" operator="in" result="effect1_backgroundBlur_49_39"/>
<feBlend mode="normal" in="SourceGraphic" in2="effect1_backgroundBlur_49_39" result="shape"/>
<feColorMatrix in="SourceAlpha" type="matrix" values="0 0 0 0 0 0 0 0 0 0 0 0 0 0 0 0 0 0 127 0" result="hardAlpha"/>
<feOffset dy="4"/>
<feGaussianBlur stdDeviation="2"/>
<feComposite in2="hardAlpha" operator="arithmetic" k2="-1" k3="1"/>
<feColorMatrix type="matrix" values="0 0 0 0 1 0 0 0 0 1 0 0 0 0 1 0 0 0 0.15 0"/>
<feBlend mode="normal" in2="shape" result="effect2_innerShadow_49_39"/>
<feColorMatrix in="SourceAlpha" type="matrix" values="0 0 0 0 0 0 0 0 0 0 0 0 0 0 0 0 0 0 127 0" result="hardAlpha"/>
<feOffset/>
<feGaussianBlur stdDeviation="34"/>
<feComposite in2="hardAlpha" operator="arithmetic" k2="-1" k3="1"/>
<feColorMatrix type="matrix" values="0 0 0 0 1 0 0 0 0 1 0 0 0 0 1 0 0 0 0.05 0"/>
<feBlend mode="normal" in2="effect2_innerShadow_49_39" result="effect3_innerShadow_49_39"/>
</filter>
<clipPath id="clip0_49_39">
<rect width="40" height="40" fill="white"/>
</clipPath>
</defs>
</svg>
